# xmcd CD database file
#
# Track frame offsets:
#	187
#	16532
#	31000
#	49442
#	65252
#	86885
#	104715
#	127195
#	142450
#	163007
#	173580
#	191467
#	208510
#	225922
#	248852
#	268802
#	286352
#
# Disc length: 4018 seconds
#
# Revision: 0
# Processed by: cddbd v1.5.1PL0 Copyright (c) Steve Scherf et al.
# Submitted via: CDex 1.51
#
DISCID=f60fb011
DTITLE=イルカ・風 - New Music Best17
DYEAR=1994
DGENRE=Japanese Folk
TTITLE0=イルカ - なごり雪
TTITLE1=風 - 22才の別れ
TTITLE2=風 - 海岸通
TTITLE3=イルカ - 雨の物語
TTITLE4=イルカ - 悲しみの証明
TTITLE5=風 - あいつ
TTITLE6=風 - 君と歩いた青春
TTITLE7=風 - 北国列車
TTITLE8=イルカ - Follow Me
TTITLE9=イルカ - 植物誌
TTITLE10=風 - ささやかなこの人生
TTITLE11=風 - トパーズ色の街
TTITLE12=風 - あの唄はもう唄わないのですか
TTITLE13=イルカ - いつか冷たい雨が
TTITLE14=イルカ - もう海には帰れない
TTITLE15=風 - 海風
TTITLE16=風 - お前だけが
EXTD=YEAR: 1994
EXTT0=
EXTT1=
EXTT2=
EXTT3=
EXTT4=
EXTT5=
EXTT6=
EXTT7=
EXTT8=
EXTT9=
EXTT10=
EXTT11=
EXTT12=
EXTT13=
EXTT14=
EXTT15=
EXTT16=
PLAYORDER=
